<svg width="12" height="18" viewBox="0 0 12 18" fill="none" xmlns="http://www.w3.org/2000/svg">
<path d="M11.9983 14.0232V17.9999L6.00006 14.8138L0.00177002 17.9999V4.17969L3.61717 7.14584L3.00678 11.9266C2.95982 12.2875 3.25496 12.6098 3.63897 12.6182H3.72282C3.85362 12.6249 3.97435 12.551 4.02634 12.4352L5.65462 8.8144L12 14.0215L11.9983 14.0232Z" fill="black"/>
<path d="M11.9983 0.00168027V11.831L6.75121 7.527L6.74283 7.48168L10.0279 5.22391C10.1419 5.14669 10.1939 5.00401 10.1553 4.8714L10.1201 4.74886C10.0195 4.38627 9.63046 4.18987 9.27831 4.31912L4.83116 5.95244L0 1.98918V0H11.9983V0.00168027Z" fill="black"/>
</svg>
